<?xml version="1.0" standalone="no"?>
<!DOCTYPE svg PUBLIC "-//W3C//DTD SVG 20010904//EN"
 "http://www.w3.org/TR/2001/REC-SVG-20010904/DTD/svg10.dtd">
<svg version="1.0" xmlns="http://www.w3.org/2000/svg"
 width="600.000000pt" height="600.000000pt" viewBox="0 0 600.000000 600.000000"
 preserveAspectRatio="xMidYMid meet">

<g transform="translate(0.000000,600.000000) scale(0.100000,-0.100000)"
fill="#000000" stroke="none">
<path d="M2340 5121 c-49 -26 -80 -89 -80 -163 0 -101 49 -186 141 -246 l58
-38 -56 -115 c-138 -285 -185 -470 -233 -924 -11 -110 -23 -219 -26 -242 -3
-26 -18 -61 -39 -90 -19 -27 -58 -86 -87 -132 -29 -47 -67 -98 -84 -115 -69
-67 -176 -262 -248 -453 -77 -200 -89 -258 -90 -423 -1 -140 0 -147 27 -200
107 -212 217 -293 415 -306 48 -3 130 -13 182 -21 91 -16 297 -22 455 -14 39
1 102 -2 140 -9 126 -20 130 -20 133 19 3 33 4 33 41 27 32 -5 42 -2 61 19 18
19 22 32 17 59 -4 25 -1 36 9 40 24 9 15 47 -20 82 -19 19 -46 54 -60 78 -14
24 -49 61 -77 81 l-51 38 4 184 3 184 32 27 c18 15 39 43 47 62 24 58 37 188
30 292 -7 100 -18 126 -49 114 -12 -4 -15 -31 -15 -155 0 -143 -8 -201 -29
-201 -5 0 -11 68 -13 154 -1 85 -6 158 -11 162 -22 23 -32 -24 -37 -179 -4
-135 -7 -162 -20 -162 -13 0 -15 25 -18 158 -2 144 -4 157 -21 157 -15 0 -19
-11 -24 -67 -4 -38 -7 -108 -7 -158 0 -78 -2 -88 -15 -75 -11 11 -16 54 -21
168 -4 84 -12 156 -17 159 -6 3 -16 -3 -24 -13 -11 -15 -13 -51 -11 -164 3
-128 6 -151 27 -199 19 -40 33 -57 57 -67 18 -8 38 -24 45 -36 12 -23 26 -318
15 -318 -4 0 -29 12 -57 26 -74 37 -190 64 -307 71 -56 3 -104 9 -106 12 -9
17 14 174 27 189 8 9 25 53 37 97 19 72 110 255 212 428 15 26 42 89 60 139
41 117 57 135 133 149 73 14 232 6 338 -16 l77 -16 95 31 c101 32 130 36 140
20 3 -5 17 -10 30 -10 20 0 34 -17 81 -97 31 -54 101 -172 156 -261 149 -245
252 -474 274 -612 l6 -38 -48 -7 c-205 -27 -381 -72 -441 -111 -12 -8 -26 -14
-31 -14 -5 0 -12 30 -15 68 -5 61 -3 74 30 152 44 102 52 189 34 361 -13 123
-61 310 -89 348 -27 37 -49 48 -64 33 -16 -16 -16 -35 -4 -638 l9 -462 -32
-55 c-17 -30 -31 -66 -31 -79 0 -33 32 -62 59 -53 19 6 21 2 21 -29 0 -27 6
-40 26 -52 24 -16 26 -16 54 5 16 11 33 21 38 21 5 0 21 9 35 20 26 21 26 21
65 1 131 -67 434 -67 680 -1 95 26 288 123 303 152 6 13 23 36 38 51 25 27 26
35 29 149 4 136 -10 214 -63 338 -18 41 -40 100 -50 130 -9 30 -32 89 -50 130
-17 41 -44 112 -59 157 -34 101 -90 212 -186 367 -61 96 -76 115 -80 97 -3
-12 -9 -22 -15 -21 -5 1 -47 41 -92 90 -67 71 -80 90 -69 99 15 13 39 -3 125
-83 41 -38 39 -34 -38 80 -80 119 -82 122 -102 230 -40 213 -108 500 -139 589
-48 137 -111 264 -164 328 l-47 58 45 49 c55 58 112 146 132 202 37 107 -9
198 -110 215 -28 4 -50 -1 -100 -26 -80 -39 -146 -110 -189 -203 -24 -51 -36
-67 -47 -62 -162 71 -519 96 -635 45 -26 -11 -49 -21 -50 -21 -1 0 -10 21 -20
48 -39 106 -97 171 -187 212 -54 25 -84 25 -128 1z m118 -165 c39 -21 78 -65
97 -110 16 -37 16 -41 -1 -53 -22 -16 -31 -10 -56 43 -11 25 -36 58 -56 74
-23 19 -33 34 -29 44 8 20 11 20 45 2z m1144 -33 c-11 -15 -35 -41 -52 -58
-31 -29 -32 -29 -20 -5 14 29 82 102 88 95 2 -2 -5 -16 -16 -32z m-479 -517
c102 -42 175 -239 192 -519 16 -254 -39 -322 -265 -321 -105 0 -141 12 -180
61 -21 27 -22 34 -17 178 6 142 18 222 63 405 27 108 72 174 134 199 34 13 36
13 73 -3z m-351 -71 c10 -21 9 -29 -5 -43 -29 -28 -69 12 -53 54 9 23 45 16
58 -11z m693 -20 c0 -23 -5 -30 -19 -30 -24 0 -41 27 -33 49 4 11 15 16 29 14
18 -2 23 -9 23 -33z m413 -600 c16 -48 18 -153 3 -168 -22 -22 -33 11 -38 113
-5 85 -4 102 8 98 8 -2 20 -22 27 -43z m-1538 -54 c0 -31 -22 -82 -34 -78 -14
5 -12 63 4 82 17 20 30 19 30 -4z m1657 -361 c40 -24 67 -65 59 -87 -6 -14
-11 -12 -39 14 -18 16 -47 40 -64 52 -18 12 -33 27 -33 32 0 16 43 10 77 -11z
m-1737 -47 c0 -16 -54 -83 -66 -83 -25 0 -15 38 17 64 30 26 49 33 49 19z
m1984 -218 c39 -51 70 -125 58 -137 -6 -6 -15 -7 -21 -4 -15 10 -80 122 -87
151 -9 38 18 32 50 -10z m-138 -11 c34 -35 73 -104 74 -131 0 -7 -7 -13 -15
-13 -15 0 -124 146 -125 168 0 23 29 12 66 -24z m-1966 -26 c0 -13 -21 -32
-135 -118 -72 -54 -80 -58 -89 -35 -7 20 36 69 103 114 77 52 121 66 121 39z
m1307 -398 c0 -129 -2 -158 -7 -110 -10 90 -10 342 0 310 4 -14 8 -104 7 -200z
m911 161 c51 -26 92 -69 92 -97 0 -13 -3 -24 -6 -24 -4 0 -28 19 -53 43 -25
23 -57 49 -70 58 -15 9 -21 20 -17 27 9 15 10 15 54 -7z m-2354 -29 c7 -11
-92 -146 -110 -150 -31 -7 -3 57 53 119 36 39 48 46 57 31z m68 -147 c-2 -11
-15 -38 -30 -60 l-27 -40 -3 30 c-5 38 26 97 47 93 10 -2 15 -12 13 -23z
m2368 -26 c39 -32 67 -80 56 -98 -3 -5 -34 17 -67 49 -35 33 -59 63 -55 69 11
17 24 13 66 -20z m-2677 -116 c-4 -37 -63 -155 -75 -151 -18 6 -21 30 -8 77
18 70 89 133 83 74z m2585 -127 c-4 -53 -29 -56 -42 -4 -7 27 -6 41 4 53 21
25 42 -1 38 -49z m120 42 c15 -15 16 -95 0 -104 -16 -10 -48 33 -48 65 0 25
15 51 30 51 3 0 11 -5 18 -12z m-2598 -48 c0 -15 -41 -124 -52 -137 -16 -20
-28 -5 -28 33 0 48 35 114 60 114 11 0 20 -4 20 -10z m2693 -176 c0 -33 -8
-77 -16 -96 -17 -40 -63 -77 -77 -62 -4 5 5 51 22 104 17 52 32 101 34 108 2
8 12 12 21 10 15 -3 18 -14 16 -64z m-2625 -56 c-3 -45 -6 -53 -23 -53 -15 0
-21 8 -23 29 -6 46 6 76 29 76 18 0 20 -5 17 -52z m2452 -50 c-1 -41 -52 -85
-79 -69 -17 11 -1 41 35 70 34 27 44 26 44 -1z m-2065 -190 c10 -10 -154 -30
-190 -24 -49 10 -44 24 13 31 26 3 54 7 62 8 21 3 109 -8 115 -15z"/>
<path d="M2985 4007 c-17 -8 -36 -21 -44 -30 -30 -36 37 -117 97 -117 21 0 22
-3 22 -94 0 -52 -4 -97 -8 -100 -16 -10 -79 14 -102 39 -28 30 -40 32 -40 6 0
-11 19 -36 42 -55 38 -33 47 -36 102 -36 74 0 128 23 190 80 48 44 66 91 46
115 -28 34 -72 1 -90 -65 -8 -29 -20 -47 -43 -60 -54 -33 -57 -29 -57 69 0 96
4 104 57 116 57 12 96 93 60 123 -22 19 -197 25 -232 9z m267 -249 c-7 -7 -12
-8 -12 -2 0 6 3 14 7 17 3 4 9 5 12 2 2 -3 -1 -11 -7 -17z"/>
<path d="M3164 3090 c-19 -7 -23 -22 -35 -127 -7 -65 -13 -201 -13 -303 -1
-159 2 -194 19 -245 l20 -60 6 270 c4 170 13 305 23 365 21 126 22 117 -20
100z"/>
<path d="M3585 2720 c-15 -24 106 -265 182 -364 45 -59 63 -68 63 -32 0 40
-20 81 -100 201 -39 61 -83 131 -96 158 -24 46 -37 56 -49 37z"/>
<path d="M2685 1570 c-99 -16 -217 -57 -268 -96 -132 -97 -85 -219 116 -293
15 -6 27 -17 27 -25 0 -30 212 -147 312 -172 90 -22 329 -29 504 -15 312 25
359 35 449 96 30 20 83 42 132 55 191 51 278 156 198 241 -135 142 -465 206
-1100 214 -170 2 -337 0 -370 -5z m563 -40 c312 -16 541 -56 728 -129 94 -37
143 -69 151 -100 14 -55 -120 -123 -302 -152 -100 -17 -635 -16 -815 0 -369
34 -581 100 -614 193 -13 38 22 81 97 117 149 73 348 92 755 71z m-452 -409
c190 -29 390 -41 686 -41 177 -1 258 -4 246 -10 -28 -17 -111 -29 -311 -46
-220 -19 -438 -14 -532 11 -62 16 -169 63 -207 90 -28 19 -36 19 118 -4z"/>
<path d="M3128 1459 c-9 -13 -47 -37 -83 -53 -59 -26 -69 -28 -79 -15 -31 42
-135 60 -207 35 -25 -8 -79 -20 -120 -26 -114 -16 -151 -28 -147 -48 2 -13 16
-18 56 -20 45 -3 52 -5 42 -17 -7 -8 -9 -22 -6 -31 5 -13 14 -15 41 -10 23 5
42 2 58 -9 13 -8 26 -12 30 -9 3 3 47 9 97 14 86 7 93 6 114 -15 15 -15 52
-27 131 -43 146 -29 200 -29 259 3 l47 25 37 -19 c48 -25 130 -51 162 -52 14
0 76 4 139 9 94 7 117 12 125 27 6 9 25 35 43 57 46 56 35 74 -43 69 -27 -2
-33 2 -42 28 -12 35 -40 40 -95 18 -18 -8 -44 -17 -59 -21 -27 -6 -28 -5 -28
29 0 44 -14 45 -70 4 -35 -26 -47 -29 -59 -20 -9 6 -24 14 -33 17 -10 4 -18
10 -18 14 0 12 40 24 48 15 7 -6 8 -11 11 -37 1 -9 4 -9 12 -1 6 6 9 23 7 39
-4 37 -32 42 -92 15 -25 -11 -48 -16 -51 -12 -11 19 -99 52 -153 57 -53 6 -59
4 -74 -17z m180 -71 c7 -7 12 -24 12 -39 0 -29 -36 -94 -57 -103 -15 -6 -18
20 -3 29 5 3 15 15 20 26 19 34 -8 22 -49 -22 -35 -38 -41 -41 -72 -34 l-34 8
29 8 c16 5 32 6 36 4 17 -10 67 76 55 94 -17 29 38 54 63 29z m-640 -45 c-2
-18 -10 -29 -23 -32 -16 -3 -17 -1 -7 12 7 8 10 22 6 31 -4 11 -1 16 11 16 12
0 15 -7 13 -27z m900 -3 c16 -26 54 -25 111 1 50 22 71 19 71 -10 0 -35 -76
-71 -148 -71 -34 0 -82 -6 -108 -12 -41 -11 -49 -11 -82 9 -43 25 -51 52 -22
78 20 18 22 18 49 2 38 -22 64 -21 86 3 10 11 21 20 24 20 3 0 12 -9 19 -20z
m-549 -30 c-7 -19 -18 -30 -29 -30 -31 0 -32 17 -3 39 38 28 44 26 32 -9z
m803 -33 c-12 -13 -22 -31 -22 -40 0 -11 -12 -18 -36 -23 -52 -10 -62 8 -20
40 59 45 114 61 78 23z m-212 -67 c13 -8 12 -10 -5 -11 -34 -3 -70 2 -79 12
-13 12 64 12 84 -1z"/>
</g>
</svg>
